<?xml version="1.0" standalone="no"?>
<!DOCTYPE svg PUBLIC "-//W3C//DTD SVG 20010904//EN"
 "http://www.w3.org/TR/2001/REC-SVG-20010904/DTD/svg10.dtd">
<svg version="1.0" xmlns="http://www.w3.org/2000/svg"
 width="299.000000pt" height="299.000000pt" viewBox="0 0 299.000000 299.000000"
 preserveAspectRatio="xMidYMid meet">
<metadata>
Created by potrace 1.11, written by Peter Selinger 2001-2013
</metadata>
<g transform="translate(0.000000,299.000000) scale(0.100000,-0.100000)"
fill="#000000" stroke="none">
<path d="M0 1495 l0 -1495 1495 0 1495 0 0 1495 0 1495 -1495 0 -1495 0 0
-1495z m340 1340 c85 -4 164 -9 175 -12 11 -3 40 -6 65 -8 25 -1 45 -3 45 -4
0 -1 29 -4 65 -6 151 -10 214 -16 221 -21 4 -2 26 -5 48 -6 23 -1 41 -4 41 -8
0 -4 18 -4 39 0 21 4 45 3 53 -1 8 -4 50 -10 94 -13 66 -5 113 -10 189 -20 6
-1 16 -5 23 -10 7 -4 34 -8 60 -8 26 0 53 -5 61 -11 12 -9 13 -9 7 1 -4 6 -2
12 3 12 6 0 11 -4 11 -9 0 -4 11 -6 25 -3 17 3 25 0 25 -9 0 -11 2 -11 10 1 5
8 10 11 10 5 0 -5 10 -11 23 -12 53 -4 75 -8 71 -15 -3 -4 12 -4 32 -1 27 4
35 3 30 -5 -8 -13 3 -15 67 -14 20 1 37 -3 37 -8 0 -5 9 -7 19 -5 11 2 25 -3
32 -11 14 -17 29 -18 29 -3 0 5 -5 7 -12 3 -7 -5 -8 -3 -3 6 6 10 11 10 20 -4
7 -9 19 -14 28 -10 8 3 18 1 21 -4 3 -6 15 -8 25 -5 10 3 22 -1 26 -8 6 -8 4
-10 -5 -4 -9 6 -11 4 -5 -4 4 -8 18 -11 33 -8 31 6 63 -18 34 -27 -9 -2 -3 -5
13 -4 17 0 41 -1 55 -2 23 -1 23 -2 5 -10 -18 -8 -18 -9 -2 -9 10 -1 15 -6 12
-11 -4 -6 -3 -9 2 -8 4 1 18 -2 31 -6 20 -7 21 -10 10 -23 -11 -14 -9 -14 19
0 20 11 34 13 38 7 4 -6 3 -10 -2 -9 -20 3 -27 -2 -13 -11 12 -8 11 -10 -6
-10 -12 0 -24 -7 -28 -15 -4 -10 1 -15 14 -15 11 0 20 -5 20 -11 0 -6 -7 -8
-16 -5 -23 9 -43 -11 -37 -34 3 -11 0 -20 -6 -20 -6 0 -11 -7 -11 -15 0 -8 -9
-15 -20 -15 -11 0 -20 -5 -20 -11 0 -5 5 -7 12 -3 7 4 8 3 4 -5 -6 -9 -11 -9
-24 1 -13 11 -15 10 -9 -4 6 -18 -2 -21 -55 -21 -10 0 -18 -4 -18 -8 0 -5 -4
-9 -10 -9 -6 0 -10 45 -10 115 l0 115 -575 0 -574 0 -5 -557 c-5 -649 -3 -603
-17 -603 -6 0 -8 -9 -4 -21 5 -15 4 -19 -4 -15 -6 4 -11 1 -12 -6 0 -7 -3 -22
-6 -33 -2 -11 -7 -33 -10 -50 -3 -16 -9 -34 -13 -40 -5 -5 -10 -26 -12 -45 -1
-19 -9 -41 -17 -49 -11 -13 -10 -18 9 -33 12 -10 38 -18 56 -18 39 0 54 -22
36 -50 -7 -12 -7 -21 0 -28 5 -5 8 -18 6 -28 -4 -16 -6 -15 -16 7 l-11 27 -43
-22 c-40 -19 -41 -21 -18 -24 36 -5 50 -20 50 -54 0 -73 -72 -138 -151 -138
-42 0 -83 -21 -62 -32 4 -3 3 -3 -4 -2 -7 2 -25 -9 -40 -24 -15 -15 -37 -27
-48 -27 -18 0 -20 -6 -18 -68 1 -38 -3 -65 -8 -61 -5 3 -9 12 -9 20 0 8 -7 14
-16 14 -9 0 -12 -5 -8 -12 4 -6 3 -8 -3 -5 -6 4 -26 0 -44 -8 l-34 -14 36 -1
c24 0 39 -6 43 -16 43 -112 -130 -227 -223 -148 -27 22 -31 33 -31 73 0 26 6
53 13 60 8 9 8 15 2 17 -43 16 -81 45 -89 68 -35 96 105 148 247 91 58 -23
111 -30 101 -13 -3 4 -11 5 -19 2 -8 -3 -21 5 -30 20 -10 14 -21 23 -26 20 -8
-5 -11 3 -8 22 0 4 -3 10 -8 13 -18 13 -32 58 -21 69 8 8 7 13 -5 18 -9 3 -14
10 -11 15 3 5 -1 12 -9 15 -7 2 -14 10 -15 17 -6 52 -10 76 -16 86 -4 6 -2 11
5 11 8 0 8 5 -2 16 -7 9 -15 26 -16 37 -2 12 -5 29 -6 37 -1 8 -6 21 -10 27
-5 7 -4 13 1 13 8 0 8 17 3 65 -1 6 -6 3 -11 -5 -7 -11 -9 -3 -6 28 3 30 0 42
-8 39 -7 -3 -11 9 -12 32 -1 20 -4 54 -8 76 -3 22 -8 67 -11 100 -2 33 -7 71
-10 85 -8 31 -13 68 -19 140 -7 74 -16 158 -22 195 -9 59 -10 85 -2 85 4 0 8
5 8 11 0 5 -4 7 -10 4 -5 -3 -9 4 -9 17 1 21 -3 64 -16 171 -6 52 -19 255 -18
290 0 15 -3 27 -7 27 -4 0 -10 57 -14 128 -3 70 -9 162 -11 205 -5 71 -3 78
12 73 10 -2 88 -8 173 -11z m1925 -424 c7 -12 -12 -24 -25 -16 -11 7 -4 25 10
25 5 0 11 -4 15 -9z m-745 -382 c26 -42 66 -72 111 -83 37 -8 75 25 94 82 l15
47 -5 -54 c-10 -89 -48 -161 -86 -161 -29 0 -74 46 -123 124 -25 41 -46 76
-46 80 0 17 18 1 40 -35z m155 -13 c0 -52 -63 -62 -73 -12 -7 33 6 47 40 44
29 -3 33 -7 33 -32z m86 -205 c43 -29 189 -160 159 -144 -8 4 -51 32 -94 61
-118 78 -153 82 -174 17 -10 -27 -12 -68 -9 -129 3 -48 4 -86 2 -84 -10 9 -35
166 -35 213 0 30 6 60 16 73 23 33 79 30 135 -7z m-31 -898 c0 -5 -7 -16 -14
-26 -11 -14 -11 -27 -4 -58 l11 -40 19 32 c16 26 17 34 6 40 -10 7 -9 9 5 9 9
0 23 11 29 25 6 14 19 25 30 25 19 0 24 -15 8 -25 -15 -10 -12 -23 8 -28 13
-4 12 -5 -5 -6 -16 -1 -30 -14 -45 -43 -39 -74 -41 -80 -17 -73 15 5 19 4 15
-4 -10 -16 -46 -14 -52 4 -5 12 -9 12 -29 -1 -34 -22 -79 -15 -83 14 -2 12 -9
22 -17 22 -7 0 -15 8 -17 18 -3 13 -10 8 -28 -20 -14 -21 -33 -38 -44 -38 -17
0 -17 2 -4 23 44 69 57 95 51 100 -3 4 1 7 10 7 11 0 17 -8 17 -22 l0 -22 16
22 c15 22 44 30 44 13 0 -5 -11 -16 -25 -25 -22 -15 -35 -46 -19 -46 17 0 93
72 104 100 11 27 30 42 30 23z m-473 -49 c9 -23 -48 -124 -69 -124 -10 0 -18
2 -18 4 0 2 16 30 35 62 26 43 32 60 22 66 -8 5 -7 8 6 8 10 0 20 -7 24 -16z
m81 -11 c2 -12 -6 -40 -18 -62 -23 -46 -18 -51 19 -18 l25 22 -16 -25 c-8 -14
-27 -26 -42 -28 -22 -3 -26 0 -26 23 0 14 9 44 21 67 l21 41 -21 -6 c-12 -3
-19 -1 -15 5 11 17 49 4 52 -19z m709 10 c9 -23 -47 -123 -69 -123 -10 0 -18
2 -18 4 0 2 16 30 35 62 26 43 32 60 22 66 -8 5 -7 8 6 8 10 0 21 -7 24 -17z
m81 -10 c2 -12 -6 -40 -18 -62 -22 -44 -15 -54 15 -21 10 11 20 18 23 15 10
-10 -32 -45 -55 -45 -30 0 -31 35 -2 92 l21 41 -21 -6 c-12 -3 -19 -1 -15 5
11 17 49 4 52 -19z m-1118 -11 c0 -15 -5 -33 -12 -40 -6 -6 -8 -15 -4 -19 4
-5 24 10 43 32 36 40 36 40 17 6 -10 -18 -30 -39 -44 -45 -14 -6 -37 -19 -52
-29 -38 -26 -72 -19 -76 15 -2 15 2 36 8 48 14 27 68 60 98 60 17 0 22 -6 22
-28z m110 6 l0 -22 16 22 c15 22 44 30 44 13 0 -5 -11 -16 -25 -25 -23 -15
-35 -46 -17 -46 13 0 38 23 50 45 6 11 12 15 12 9 0 -20 -41 -64 -60 -64 -10
0 -20 8 -22 18 -3 13 -10 8 -27 -20 -14 -24 -31 -38 -43 -38 -21 0 -20 3 39
96 7 11 10 24 6 27 -3 4 1 7 10 7 11 0 17 -8 17 -22z m390 8 c0 -8 3 -21 6
-29 3 -9 -10 -31 -34 -56 -45 -47 -96 -57 -106 -21 -3 11 -9 29 -12 40 -4 15
5 26 43 49 51 33 103 41 103 17z m430 -14 c0 -15 -5 -33 -12 -40 -6 -6 -8 -15
-4 -19 4 -5 21 8 38 27 l30 35 -16 -32 c-9 -17 -26 -35 -38 -39 -13 -4 -34
-16 -49 -26 -34 -26 -73 -21 -77 10 -3 20 -6 21 -20 10 -12 -10 -11 -6 3 16
26 39 92 86 122 86 19 0 23 -5 23 -28z m360 8 c0 -20 -33 -42 -81 -53 -25 -6
-44 -38 -31 -51 13 -14 35 -3 79 37 28 25 42 33 35 21 -33 -62 -124 -98 -136
-54 -3 11 -9 29 -12 40 -4 15 5 26 43 49 57 36 103 41 103 11z m-1883 -56 c-3
-3 -12 -4 -19 -1 -8 3 -5 6 6 6 11 1 17 -2 13 -5z m1583 -139 c8 -10 10 -30 6
-59 -8 -53 3 -63 38 -35 14 11 26 18 26 15 0 -3 28 8 63 24 68 31 186 46 194
23 3 -8 -8 -10 -34 -6 -52 7 -87 -23 -152 -130 -48 -80 -85 -122 -126 -146
-17 -10 -16 -10 10 -5 45 10 71 31 102 80 16 25 36 44 46 44 23 0 22 -3 -18
-63 -41 -60 -43 -71 -14 -62 15 5 19 4 15 -4 -12 -19 -47 -13 -53 9 -5 20 -5
20 -30 0 -20 -15 -41 -20 -89 -20 -36 0 -64 4 -64 10 0 6 11 10 24 10 44 0 74
18 105 64 17 24 31 47 31 50 0 3 -19 6 -42 6 -36 0 -48 -7 -94 -50 -88 -83
-176 -110 -244 -75 -23 12 -30 23 -30 44 0 17 6 31 16 35 20 8 34 -1 34 -21 0
-10 -6 -14 -20 -10 -17 4 -18 2 -10 -14 14 -25 72 -40 115 -28 37 11 154 111
136 117 -20 7 -12 22 12 22 13 0 34 11 46 24 l22 23 -22 6 c-20 5 -21 10 -15
61 l7 56 -41 0 c-81 0 -136 -56 -131 -133 3 -41 72 -38 119 5 12 12 22 17 22
11 0 -23 -61 -63 -95 -63 -43 0 -65 22 -65 66 0 43 22 78 69 110 41 28 111 33
131 9z m-320 -82 c-1 -21 -22 -47 -68 -85 -27 -22 -30 -28 -15 -29 14 -1 14
-2 -4 -7 -13 -4 -43 -41 -75 -92 -61 -98 -122 -151 -171 -149 l-32 2 30 6 c45
9 73 31 106 84 16 26 29 49 29 52 0 11 -23 4 -49 -16 -38 -28 -75 -22 -79 13
-2 15 2 36 8 48 14 27 68 60 98 60 18 0 22 -6 22 -29 0 -17 -4 -33 -10 -36 -5
-3 -10 -10 -10 -16 0 -19 20 -8 46 27 23 29 25 37 13 45 -11 7 -11 9 3 9 10 0
22 10 29 21 6 12 29 41 51 65 42 45 78 58 78 27z m-1010 2 c0 -3 -16 -30 -34
-60 -34 -52 -34 -54 -13 -57 30 -4 33 -37 7 -87 -26 -53 -8 -53 26 -1 15 22
30 40 34 40 3 0 13 11 20 25 7 14 22 25 32 25 24 0 23 -3 -17 -63 -41 -60 -43
-71 -14 -62 15 5 19 4 15 -4 -12 -19 -47 -13 -53 9 l-6 21 -19 -21 c-28 -30
-58 -27 -58 8 1 15 7 38 15 52 8 14 14 31 15 38 0 24 -37 -10 -67 -60 -16 -27
-35 -48 -45 -48 -22 0 -22 4 -5 33 8 12 40 66 72 120 40 67 63 97 76 97 11 0
19 -2 19 -5z m580 0 c0 -2 -16 -29 -35 -59 -34 -54 -34 -55 -12 -58 30 -4 33
-37 7 -87 -26 -53 -8 -53 26 -1 15 22 31 40 36 40 15 0 -45 -79 -64 -86 -42
-13 -49 24 -18 86 11 22 16 40 12 40 -15 0 -57 -46 -77 -85 -12 -20 -27 -35
-38 -35 -10 0 -15 4 -12 10 3 5 -8 2 -24 -8 -35 -20 -64 -9 -69 25 -2 15 -9
19 -27 16 -17 -4 -24 0 -27 14 -3 14 -9 11 -28 -19 -14 -21 -33 -38 -43 -38
-12 0 -16 4 -11 13 4 6 18 29 32 50 13 22 21 45 18 53 -3 9 2 14 14 14 14 0
20 -7 20 -22 l0 -22 16 22 c15 22 44 30 44 12 0 -5 -11 -17 -25 -26 -24 -16
-34 -44 -16 -44 6 0 31 18 56 40 53 46 95 54 95 17 0 -25 -17 -47 -37 -47 -19
0 -16 21 4 36 10 7 14 16 10 21 -12 11 -64 -52 -70 -84 -7 -39 20 -40 59 -2
20 19 61 76 92 126 37 60 63 93 75 93 9 0 17 -2 17 -5z m1170 0 c0 -3 -16 -29
-35 -58 -35 -52 -35 -52 -13 -57 46 -11 35 -78 -19 -115 -42 -28 -81 -33 -90
-10 -5 14 -8 14 -29 0 -32 -20 -43 -19 -53 7 -6 17 -1 34 23 70 17 27 39 48
49 48 23 0 22 -4 -11 -53 -32 -48 -45 -77 -33 -77 14 0 48 44 112 148 42 67
69 102 81 102 10 0 18 -2 18 -5z m-1580 -121 c0 -3 -13 -24 -28 -47 -61 -90
-45 -107 20 -23 23 30 44 53 46 51 6 -5 -57 -87 -79 -103 -23 -16 -49 -10 -49
13 0 9 -4 13 -10 10 -5 -3 7 19 28 49 20 31 45 55 55 56 9 0 17 -3 17 -6z
m1650 -16 l0 -22 16 22 c15 22 44 30 44 12 0 -5 -11 -17 -25 -26 -25 -16 -34
-44 -15 -44 5 0 24 13 42 29 43 37 71 51 102 51 18 0 26 -5 26 -17 1 -17 1
-17 14 0 7 9 20 17 29 17 13 0 9 -13 -19 -65 -20 -36 -31 -65 -26 -65 14 0 52
47 77 93 12 22 27 37 38 37 16 0 14 -9 -19 -67 -26 -48 -32 -64 -18 -54 10 8
6 1 -11 -16 -16 -16 -43 -49 -59 -73 -49 -72 -136 -108 -136 -56 0 27 41 66
104 98 38 20 39 21 18 29 -12 5 -22 13 -22 19 0 7 -9 5 -22 -4 -40 -28 -88
-15 -88 25 0 12 -6 15 -24 12 -18 -4 -25 0 -28 14 -3 14 -9 11 -28 -19 -14
-21 -33 -38 -43 -38 -12 0 -16 4 -11 13 4 6 18 29 32 50 13 22 21 45 18 53 -3
9 2 14 14 14 14 0 20 -7 20 -22z m-64 -26 c-18 -16 -18 -16 -6 6 6 13 14 21
18 18 3 -4 -2 -14 -12 -24z m394 -16 c0 -2 -8 -10 -17 -17 -16 -13 -17 -12 -4
4 13 16 21 21 21 13z"/>
<path d="M2115 2310 c-3 -6 1 -7 9 -4 18 7 21 14 7 14 -6 0 -13 -4 -16 -10z"/>
<path d="M789 991 c-52 -53 -29 -67 50 -31 43 20 43 21 26 40 -25 27 -41 25
-76 -9z"/>
<path d="M880 1005 c12 -15 30 -12 30 6 0 5 -10 9 -21 9 -18 0 -19 -2 -9 -15z"/>
<path d="M756 904 c-26 -26 -18 -39 9 -14 14 13 25 25 25 27 0 9 -20 1 -34
-13z"/>
<path d="M779 875 c-13 -13 -24 -34 -24 -47 0 -34 -19 -36 -26 -2 -7 30 -10
27 -14 -14 -1 -12 -6 -26 -10 -30 -5 -4 -5 1 -2 11 10 26 -6 20 -20 -8 -6 -14
-7 -23 -3 -20 5 3 10 0 12 -7 6 -18 65 -11 102 12 49 30 72 69 67 118 -2 22
-57 14 -82 -13z"/>
<path d="M427 763 c3 -7 6 -13 8 -13 2 0 5 6 8 13 3 8 -1 14 -8 14 -7 0 -11
-6 -8 -14z"/>
<path d="M243 650 c-12 -5 -29 -21 -39 -35 -14 -22 -15 -30 -4 -49 12 -24 49
-46 74 -46 8 0 31 16 52 35 21 20 60 43 86 53 l47 16 -37 18 c-40 19 -141 23
-179 8z"/>
<path d="M466 598 c4 -7 3 -8 -4 -4 -14 8 -56 -13 -97 -49 l-30 -26 48 5 c80
10 172 59 114 61 -7 1 -11 6 -9 13 1 7 -5 12 -14 12 -9 0 -12 -5 -8 -12z"/>
<path d="M537 603 c-4 -3 -7 -11 -7 -17 0 -6 5 -5 12 2 6 6 9 14 7 17 -3 3 -9
2 -12 -2z"/>
<path d="M399 505 c-3 -2 -21 -5 -41 -7 -31 -2 -39 -7 -50 -32 -17 -41 -15
-93 4 -112 20 -21 77 -20 117 0 38 20 71 70 71 109 0 23 -4 27 -29 27 -39 0
-83 -44 -75 -76 5 -18 2 -24 -10 -24 -28 0 -19 51 16 87 22 22 27 33 17 33 -9
0 -18 -2 -20 -5z"/>
<path d="M1669 823 c-8 -16 -22 -34 -32 -41 -14 -11 -15 -17 -6 -28 16 -20 44
-2 58 37 21 60 7 83 -20 32z"/>
<path d="M948 833 c-51 -53 -56 -109 -8 -83 19 10 24 21 21 47 -1 7 7 18 19
25 11 7 20 18 20 25 0 22 -25 15 -52 -14z"/>
<path d="M1453 841 c-13 -11 -23 -22 -23 -25 0 -9 57 21 65 34 10 17 -19 10
-42 -9z"/>
<path d="M1490 820 c-8 -6 -31 -15 -51 -20 -23 -6 -39 -18 -42 -29 -12 -46 32
-41 77 9 43 48 48 61 16 40z"/>
<path d="M1878 833 c-54 -57 -55 -113 -2 -78 18 11 23 22 19 35 -4 13 1 23 14
32 12 7 21 18 21 25 0 22 -25 15 -52 -14z"/>
<path d="M2243 841 c-32 -27 -28 -34 7 -16 17 9 30 20 30 25 0 15 -12 12 -37
-9z"/>
<path d="M2165 596 c-27 -12 -72 -44 -100 -69 l-50 -46 41 -1 c37 0 44 4 70
41 15 22 44 54 63 70 43 35 40 36 -24 5z"/>
<path d="M1619 533 l-32 -48 32 30 c37 34 57 65 42 65 -6 0 -24 -21 -42 -47z"/>
<path d="M1418 423 c-54 -57 -55 -113 -2 -78 18 11 23 22 19 35 -4 13 1 23 14
32 12 7 21 18 21 25 0 22 -25 15 -52 -14z"/>
<path d="M2317 408 c-40 -50 -52 -78 -34 -78 27 0 105 99 90 114 -12 12 -22 6
-56 -36z"/>
<path d="M2623 431 c-32 -27 -28 -34 7 -16 17 9 30 20 30 25 0 15 -12 12 -37
-9z"/>
<path d="M2660 410 c-8 -6 -31 -15 -51 -20 -23 -6 -39 -18 -42 -29 -12 -46 32
-41 77 9 43 48 48 61 16 40z"/>
<path d="M2625 264 c-63 -42 -87 -84 -47 -84 19 0 58 37 87 83 22 34 11 34
-40 1z"/>
</g>
</svg>
